# xmcd
#
# Track frame offsets:
# 150
# 16247
# 23415
# 40312
# 55022
# 63457
# 72370
# 91847
# 109732
# 118170
# 140535
# 151772
# 161507
# 166527
# 186412
#
# Disc length: 2789 seconds
#
#
# Revision: 3
# Processed by: cddbd v1.5.2PL0 Copyright (c) Steve Scherf et al.
# Submitted via: FreeRIP 2.942 
#
DISCID=b90ae30f
DTITLE=Voyager - DIMENSIONS
DYEAR=1995
DGENRE=New Age
TTITLE0=Into The Light
TTITLE1=Angel's Cry (Intro)
TTITLE2=Angel's Cry
TTITLE3=Beyond Imagination
TTITLE4=7th Heaven - Dimension 1
TTITLE5=Voyager Prelude
TTITLE6=7th Heaven
TTITLE7=Pictures Of The Universe
TTITLE8=Moving Into The Future
TTITLE9=Ecstasy
TTITLE10=Winds Of Memories
TTITLE11=Dimension 2
TTITLE12=Endless Dimension
TTITLE13=Dimension 5
TTITLE14=Blue Energy
EXTD=Produced, Arranged and Performed by Sergio Pommerening.\nBrazilian musician
EXTT0=
EXTT1=
EXTT2=
EXTT3=
EXTT4=
EXTT5=
EXTT6=
EXTT7=
EXTT8=
EXTT9=
EXTT10=
EXTT11=
EXTT12=
EXTT13=
EXTT14=
PLAYORDER=
